HIERARCHY
ROOT Hips
{
  OFFSET 2.26061 22.2878 23.7974
  CHANNELS 6 Xposition Yposition Zposition Zrotation Xrotation Yrotation
  JOINT LeftUpLeg
  {
    OFFSET 8.64259 1.95398 -2.38835
    CHANNELS 3 Zrotation Xrotation Yrotation
    JOINT LeftLeg
    {
      OFFSET 43.7702 0 0
      CHANNELS 3 Zrotation Xrotation Yrotation
      JOINT LeftFoot
      {
        OFFSET 40.6238 0 0
        CHANNELS 3 Zrotation Xrotation Yrotation
        JOINT LeftToeBase
        {
          OFFSET 12.7242 0 0
          CHANNELS 3 Zrotation Xrotation Yrotation
          End Site
          {
            OFFSET 0 0 0
          }
        }
      }
    }
  }
  JOINT RightUpLeg
  {
    OFFSET -8.2249 1.95398 -2.59336
    CHANNELS 3 Zrotation Xrotation Yrotation
    JOINT RightLeg
    {
      OFFSET 43.5653 0 0
      CHANNELS 3 Zrotation Xrotation Yrotation
      JOINT RightFoot
      {
        OFFSET 40.6238 0 0
        CHANNELS 3 Zrotation Xrotation Yrotation
        JOINT RightToeBase
        {
          OFFSET 12.7242 0 0
          CHANNELS 3 Zrotation Xrotation Yrotation
          End Site
          {
            OFFSET 0 0 0
          }
        }
      }
    }
  }
  JOINT Spine
  {
    OFFSET 0.165834 0.87714 6.61349
    CHANNELS 3 Zrotation Xrotation Yrotation
    JOINT Spine1
    {
      OFFSET 7.38963 1.71661e-005 0
      CHANNELS 3 Zrotation Xrotation Yrotation
      JOINT Spine2
      {
        OFFSET 11.9445 1.14441e-005 0
        CHANNELS 3 Zrotation Xrotation Yrotation
        JOINT Spine3
        {
          OFFSET 14.7254 4.19617e-005 0
          CHANNELS 3 Zrotation Xrotation Yrotation
          JOINT Spine4
          {
            OFFSET 10.9679 0 0
            CHANNELS 3 Zrotation Xrotation Yrotation
            JOINT RightShoulder
            {
              OFFSET 2.46616 -1.6653 3.69651
              CHANNELS 3 Zrotation Xrotation Yrotation
              JOINT RightArm
              {
                OFFSET 13.0012 0 0
                CHANNELS 3 Zrotation Xrotation Yrotation
                JOINT RightForeArm
                {
                  OFFSET 28.7848 1.52588e-005 0
                  CHANNELS 3 Zrotation Xrotation Yrotation
                  JOINT RightHand
                  {
                    OFFSET 26.5688 1.52588e-005 0
                    CHANNELS 3 Zrotation Xrotation Yrotation
                    End Site
                    {
                      OFFSET 0 0 0
                    }
                  }
                }
              }
            }
            JOINT LeftShoulder
            {
              OFFSET 2.38034 -1.29275 -3.7523
              CHANNELS 3 Zrotation Xrotation Yrotation
              JOINT LeftArm
              {
                OFFSET 16.3182 6.10351e-005 0
                CHANNELS 3 Zrotation Xrotation Yrotation
                JOINT LeftForeArm
                {
                  OFFSET 27.0901 0 0
                  CHANNELS 3 Zrotation Xrotation Yrotation
                  JOINT LeftHand
                  {
                    OFFSET 24.5451 1.52588e-005 0
                    CHANNELS 3 Zrotation Xrotation Yrotation
                    End Site
                    {
                      OFFSET 0 0 0
                    }
                  }
                }
              }
            }
            JOINT Neck
            {
              OFFSET 5.0226 -0.0266342 0
              CHANNELS 3 Zrotation Xrotation Yrotation
              JOINT Head
              {
                OFFSET 6.69363 2.86102e-005 0
                CHANNELS 3 Zrotation Xrotation Yrotation
                End Site
                {
                  OFFSET 0 0 0
                }
              }
            }
          }
        }
      }
    }
  }
}
MOTION
Frames:	17
Frame Time:	0.0416667
17.8518 95.3968 -293.622 92.5263 -41.9513 87.2939 -167.291 15.1085 90.3398 -37.2034 61.751 -13.0149 44.9134 -17.8793 39.4968 38.7083 9.28069 29.4338 172.435 10.9612 93.9017 -26.7244 12.1881 3.27163 76.262 -5.96919 -2.84813 22.8612 -1.55014 10.6491 -0.851563 7.63681 -89.9792 11.603 -1.6842 0.215839 -0.0669168 -1.67308 0.289775 -22.6107 -1.67118 -0.300448 -2.59804 -1.67117 -0.300459 93.06 -56.2103 -95.09 18.4631 -6.23133 6.1078 -3.86157 -31.7812 -55.3101 -12.0583 -3.37067 23.3838 -84.6381 -49.0403 86.6662 -16.83 16.5363 -1.74207 7.41768 15.764 -36.6474 10.0523 -1.0903 -13.5352 4.33728 -15.7726 -6.02273 0.677294 -14.6608 0.035516 
18.9651 95.8278 -293.615 92.7651 -46.9479 87.1907 -170.97 15.6885 90.8613 -39.883 40.5975 -3.41517 46.5312 -11.1131 27.4422 43.933 15.5295 26.4516 176.719 11.3247 94.3991 -28.6447 0.806569 -2.61905 73.3033 -4.77608 -2.33183 26.5678 0.135286 -2.60774 -0.232026 7.45568 -90.1728 11.962 -0.542755 -0.286075 0.291161 -0.554803 -0.261922 -22.2446 -0.431684 -0.435979 -2.23195 -0.431682 -0.435977 95.8182 -51.3235 -91.6978 24.9234 -5.68177 7.37827 -10.592 -22.6117 -50.4706 -6.67434 -0.962873 7.05871 -98.6483 -50.1935 66.0146 -23.0201 8.82297 10.6081 10.0727 11.3467 -41.7542 5.89098 0.450008 2.40576 -0.49235 -16.0777 4.7727 2.30546 -16.9746 -9.98368 
21.8361 96.1153 -294.417 91.2482 -54.7528 86.3654 -175.016 15.2256 91.0786 -33.1567 29.5411 0.914476 51.495 -4.01136 22.4955 46.5994 17.4675 20.5388 177.988 11.0291 93.5359 -28.155 -6.37863 -4.88023 73.1565 -5.41188 -2.63818 27.2415 0.24367 -4.06691 -0.134793 7.41847 -90.2119 12.0362 -0.367929 -0.382518 0.365231 -0.384395 -0.365964 -22.1697 -0.235964 -0.475413 -2.15704 -0.235964 -0.475416 94.9727 -50.6857 -93.0675 25.5495 -7.03821 5.89195 -12.4833 -20.8066 -53.7387 -4.74185 -0.66187 3.16849 -99.6555 -50.9264 64.8368 -24.7111 10.3871 10.9533 7.31774 11.48 -36.4088 2.62803 0.105297 0.200214 1.04204 -13.5349 6.09935 3.01317 -14.6136 -8.48681 
24.6895 96.3774 -295.125 88.8528 -62.3402 85.2209 -178.089 14.2359 91.549 -26.6301 28.2325 4.25293 57.076 1.79919 13.2203 51.108 20.23 12.4174 178.6 11.4051 93.0698 -27.6935 -10.4867 -5.99667 72.3658 -5.38433 -2.64745 28.03 0.107511 -2.03774 -0.096696 7.40862 -90.2462 12.0557 -0.308416 -0.457135 0.384694 -0.328223 -0.443124 -22.1499 -0.156774 -0.528691 -2.13725 -0.15676 -0.528688 94.5316 -51.0409 -93.6929 24.9092 -9.02894 3.31088 -12.0391 -20.7544 -57.1215 -6.51054 -0.713441 2.69338 -99.6892 -51.0266 64.8254 -26.1062 10.8839 10.2782 5.00821 11.2501 -31.5658 1.84588 0.0808929 0.258847 2.66447 -10.6054 5.60528 4.08494 -11.6371 -6.13141 
27.5434 96.3078 -295.923 88.0995 -69.246 86.3411 -178.046 12.3116 92.9644 -22.7007 33.3688 5.37511 58.9394 2.9793 9.40704 48.1754 16.7799 9.0973 -179.993 11.3233 93.5558 -28.0931 -14.9451 -7.65492 71.4607 -5.31925 -2.64367 29.9894 0.176452 -2.15305 -0.071236 7.48013 -90.3781 11.9121 -0.319744 -0.719701 0.240956 -0.351091 -0.70495 -22.2926 -0.0886593 -0.782523 -2.27999 -0.0886635 -0.782528 94.4477 -50.4013 -93.9159 26.3696 -9.35141 3.01301 -13.3138 -19.006 -59.1914 -6.96995 -0.653199 1.59468 -100.265 -51.2037 64.0659 -26.6165 11.4333 9.66382 6.83257 16.1073 -30.7111 1.11931 0.0892024 1.52152 2.72772 -7.75988 5.08984 5.79902 -8.7497 -4.86713 
30.5298 96.4122 -296.947 87.3004 -74.9638 86.307 -176.738 11.5749 92.4852 -22.5564 23.5461 4.56807 62.7701 4.89645 2.81251 38.8128 7.95338 2.25939 -178.73 11.3171 92.8924 -28.1484 -19.1823 -9.54383 70.4542 -5.30661 -2.69386 31.449 0.2382 -2.4989 -0.178887 7.52525 -90.3674 11.8214 -0.528494 -0.676287 0.150356 -0.557742 -0.652378 -22.3837 -0.300811 -0.803855 -2.37109 -0.300814 -0.803852 94.2646 -51.3438 -94.0544 25.9134 -8.70936 3.22551 -14.9783 -19.4013 -60.0209 -7.12519 -0.674641 1.63776 -100.221 -51.3289 64.1741 -26.2168 11.9207 9.02507 5.83865 15.4463 -30.6226 3.68132 0.395996 5.19139 3.43229 -5.24891 3.89113 6.4152 -5.98831 -2.96967 
33.1428 96.4896 -298.061 79.6731 -80.4089 79.4508 -175.688 12.9253 91.5497 -23.9065 17.9096 3.48581 64.3777 5.27981 2.51117 35.5619 5.33341 0.00267507 -176.491 13.0432 92.5379 -28.577 -21.2846 -11.1649 69.1239 -5.26511 -2.76262 32.6794 0.31539 -3.63835 -0.20369 7.5109 -90.3251 11.8503 -0.557981 -0.588715 0.179299 -0.583359 -0.563593 -22.3552 -0.355264 -0.729192 -2.34259 -0.355269 -0.72919 93.4972 -52.7714 -94.9921 24.7263 -6.91575 4.321 -16.8547 -18.5232 -61.4688 -4.54289 -0.614354 2.42137 -99.5739 -50.9087 64.9481 -24.9685 12.5729 7.0831 4.61065 13.5737 -30.566 7.59923 0.490558 2.21068 4.48243 -3.09584 3.04339 7.26342 -3.69401 -1.93657 
35.1131 96.5368 -298.892 69.2078 -84.3183 69.67 -174.774 13.2889 91.3885 -24.3676 20.1259 2.3919 63.3567 5.01627 7.31423 37.7255 7.02576 -0.115606 -176.263 15.0926 92.6622 -29.9843 -16.1855 -9.96096 69.0035 -5.31408 -2.8102 31.3397 0.418612 -6.98912 -0.220775 7.53059 -90.2556 11.8113 -0.559152 -0.449975 0.140425 -0.578411 -0.424935 -22.3946 -0.398075 -0.597216 -2.38199 -0.398074 -0.597225 92.9226 -53.516 -95.7239 23.945 -5.89793 4.67809 -19.1088 -21.2277 -60.3259 -6.29318 -0.913329 5.09 -99.5548 -50.139 64.7004 -22.3791 12.1952 6.1966 4.99082 12.1417 -33.0908 8.51908 0.514523 1.99297 5.22504 -1.6205 2.5803 7.84086 -2.18717 -1.81308 
36.7009 96.8441 -299.469 55.6741 -86.9965 55.854 -174.776 12.664 90.2965 -24.243 27.1846 1.61077 59.0311 2.72383 17.3732 39.8999 8.6415 -1.43857 -179.711 15.6552 92.2209 -31.4254 -7.37015 -6.45848 70.4424 -5.47647 -2.82474 33.1998 0.350576 -5.03862 -0.253637 7.52586 -90.0825 11.822 -0.543151 -0.106706 0.151177 -0.547309 -0.0827102 -22.3847 -0.485976 -0.265018 -2.37206 -0.485966 -0.265019 92.9449 -53.9563 -95.6184 23.5416 -6.33061 4.12025 -13.0985 -21.3758 -54.1404 -9.15104 -1.09349 5.54371 -99.5534 -50.3017 64.7608 -18.3031 11.7604 4.98359 4.9032 11.0288 -35.0823 12.3728 0.880784 3.12634 4.81614 -0.452418 2.03996 8.65864 -0.905184 -1.30822 
37.8679 97.0494 -299.926 -13.9369 -88.8516 -13.6664 -174.314 11.5897 90.2463 -22.832 31.4983 0.758816 57.5474 1.21871 19.2292 39.5642 8.69439 4.47462 178.108 15.2106 92.8252 -33.6866 -2.21972 -4.02025 71.0472 -5.46769 -2.80557 34.9229 0.360805 -5.15209 -0.162552 7.5301 -89.9825 11.8138 -0.314976 0.0684662 0.14285 -0.311657 0.0822559 -22.3926 -0.320986 -0.0293646 -2.37997 -0.320995 -0.0293744 92.6803 -53.4763 -96.0891 23.5648 -6.64018 4.44413 -11.5337 -24.4642 -49.3749 -7.73827 -1.12342 6.90734 -98.8106 -50.1671 65.7885 -16.1562 9.9491 3.30159 4.85282 9.73503 -36.1606 16.9341 1.47442 4.81073 6.19664 0.129036 2.36339 7.55115 -0.419285 -1.49764 
38.7772 97.1707 -300.096 -81.642 -88.2007 -81.7164 -174.169 10.3978 89.6326 -22.3238 33.6869 0.184068 56.5976 0.342406 21.5974 39.4432 8.6576 5.65772 176.424 12.9751 92.8692 -33.0702 -2.35753 -2.59266 68.6032 -4.29127 -2.26532 36.375 0.385316 -4.86459 -0.152874 7.50802 -89.8868 11.8579 -0.250682 0.252516 0.186978 -0.239318 0.263299 -22.3483 -0.314976 0.165509 -2.33561 -0.314984 0.165493 92.8683 -53.2356 -95.8509 23.263 -7.39486 4.62265 -12.1029 -28.9074 -46.0695 -4.09225 -0.850256 6.00602 -98.8689 -50.3977 65.7848 -14.918 8.01864 2.30839 3.35182 6.7361 -36.0906 20.0104 1.84251 5.40159 7.26497 0.708271 3.3279 6.46648 -0.0944254 -2.22109 
39.4765 97.2051 -299.875 -90.8776 -86.5718 -91.8094 -174.362 9.10843 88.3596 -21.1347 33.1692 -0.120464 56.4507 -0.0199825 22.1689 39.2965 8.59613 6.92794 175.144 9.6733 92.1006 -27.879 -0.467057 -1.69255 68.0776 -4.00252 -2.15588 36.6855 0.385341 -0.986841 -0.0989584 7.43533 -89.7616 12.0034 -0.0841776 0.484911 0.332321 -0.0627665 0.488143 -22.2023 -0.226033 0.437198 -2.1896 -0.22603 0.437192 93.252 -52.8733 -95.3412 23.7059 -7.3464 4.1901 -11.5223 -32.6318 -42.9278 -2.80586 -0.906414 8.95583 -99.3641 -50.9257 65.2559 -13.9748 7.46507 1.68339 2.50302 5.3704 -36.5373 22.0878 2.13319 5.86512 8.25505 1.24613 4.60008 5.00543 0.133304 -3.03769 
39.7973 97.1689 -299.524 -81.5111 -85.908 -83.4741 -174.021 9.38569 87.5741 -21.2653 28.4877 -0.637733 58.9672 1.57524 16.3485 39.4923 8.93103 9.77921 174.599 6.48148 91.1975 -21.2405 0.857524 -1.49254 71.0136 -5.45459 -2.85636 32.2553 0.168635 0.154529 -0.11655 7.2767 -89.6321 12.3201 -0.0569612 0.740983 0.648922 -0.0243002 0.742768 -21.8847 -0.27703 0.689605 -1.87208 -0.277022 0.689607 93.4326 -53.2459 -95.0124 24.1235 -6.57278 4.49978 -11.6136 -33.9017 -41.0992 -0.0983717 -0.686635 8.38712 -99.542 -51.3704 65.1581 -14.1111 8.2984 0.798345 1.24374 4.02552 -35.8819 20.8252 1.52894 3.50834 8.83137 1.54917 4.67599 3.81092 0.444174 -2.75819 
40.2032 97.1504 -299.081 -85.4041 -83.9634 -88.0623 -173.504 8.2103 86.8657 -20.4859 24.0024 -1.23755 61.2835 3.02159 13.7852 40.4621 9.86993 10.3566 174.22 5.29036 90.0364 -19.6356 -1.80973 -1.68573 72.257 -6.26907 -3.26899 30.7272 0.0938102 0.0599898 0.00779321 7.25959 -89.5565 12.3529 0.226079 0.859843 0.681732 0.2637 0.849053 -21.8512 -0.042778 0.888037 -1.8385 -0.0427877 0.888031 93.3714 -53.5139 -95.0609 24.3205 -6.12612 3.979 -10.3629 -33.8352 -39.245 -0.433998 -0.70363 8.2201 -100.259 -52.6362 64.5894 -14.9118 8.92978 0.503256 2.17994 5.63577 -36.169 20.664 1.6599 4.18335 8.99945 1.98146 4.09769 3.36734 1.03994 -1.86858 
40.7479 97.1112 -298.582 -89.2378 -83.3581 -92.6868 -173.51 6.97989 85.8718 -20.2276 17.5682 -1.27229 64.5726 4.74594 7.79804 39.3945 8.88252 10.6201 172.887 4.69135 88.2353 -19.6711 -4.19771 -1.37325 73.1308 -6.63754 -3.46308 30.059 0.0361237 0.541939 -0.030461 7.31842 -89.5452 12.2356 0.154986 0.890748 0.564366 0.194036 0.883068 -21.9684 -0.11988 0.896148 -1.95572 -0.119878 0.896154 93.361 -52.6975 -95.2069 25.3167 -5.89231 3.98966 -9.42396 -31.261 -39.4217 0.137037 -0.602492 7.37584 -101.06 -53.2792 63.6957 -18.2684 9.62985 0.616092 2.59622 6.29513 -35.089 16.6218 1.2226 3.47613 9.16768 2.30375 4.41682 3.37656 1.32375 -1.32132 
41.2038 96.9904 -298.042 -92.2675 -84.0134 -96.1121 -173.709 5.73798 85.104 -18.8832 16.6483 -1.36378 64.4602 5.20769 8.59178 34.2621 4.17113 6.56248 172.265 4.44443 87.2318 -20.5314 -6.07799 -1.3472 73.9643 -6.89942 -3.59031 30.3846 0.137951 -1.17216 -0.182302 7.40725 -89.5458 12.0591 -0.147853 0.922219 0.387859 -0.107121 0.927835 -22.1451 -0.418177 0.835163 -2.13245 -0.418175 0.835164 93.2441 -53.2325 -95.2942 24.6374 -6.68032 3.93146 -8.8828 -28.8228 -41.5797 -1.77188 -0.701311 6.87087 -101.729 -53.5378 62.859 -20.9141 12.4639 0.507741 2.99936 8.99593 -34.2227 14.0225 1.13005 4.10136 9.64453 2.81606 4.0595 3.75893 1.89248 -1.00862 
41.5142 96.873 -297.194 -88.5475 -84.1337 -92.5597 -173.699 6.04132 84.8891 -19.9182 10.1374 -1.16049 67.4152 5.66824 0.0922448 30.942 1.10281 8.11427 172.375 4.86885 86.8605 -21.7403 -8.09776 -1.65517 74.6692 -7.18009 -3.71947 30.2945 0.283073 -4.05345 -0.174339 7.42873 -89.5638 12.0161 -0.140729 0.885564 0.34489 -0.101621 0.890889 -22.1882 -0.400361 0.802341 -2.1756 -0.400362 0.802327 93.3391 -52.4694 -95.2765 25.8262 -7.40641 4.06727 -8.8697 -27.1157 -43.4725 -6.13009 -0.964245 6.21661 -102.981 -53.8892 61.2588 -21.6683 15.7459 0.23457 1.26113 9.48586 -32.5167 12.6344 0.941715 3.45514 10.5276 2.46489 3.95595 3.32089 1.56018 -0.71091 
